/* XPM */
static char *classic[] = {
/* columns rows colors chars-per-pixel */
"224 64 17 1 ",
"  c None",
". c #1D2B53",
"X c #7E2553",
"o c #5F574F",
"O c #AB5236",
"+ c #FF004D",
"@ c #A86F4D",
"# c #00E436",
"$ c #008751",
"% c #FFA300",
"& c #FFEC27",
"* c #83769C",
"= c #FF77A8",
"- c #29ADFF",
"; c #FFCCAA",
": c #C2C3C7",
"> c #FFF1E8",
/* pixels */
"   $                                        o                                             oo                                                                                                                                    ",
"   $                               $$     o o o     #      OOO     OOO     XX     oooo   oooo                                                                                                                                   ",
"       $  o         $      ==      $$      ooo    # #     OOOOO   OOOOO    XX    oooooo  oooo                                                                                                                                   ",
"       $          $ $ $   =  =    $$$$   oo o oo   ## #   OOOOO   OOOOO   XX X   oooooo   oo                                                                                                                                    ",
" $                 $$$     ==     $$$$     ooo      ##   OOOOOOO OO   OO  XXXX   oooooo       o                                                                                                                                 ",
" $            o     $            $$$$$$     o       #    OOOOOOO OO   OO  XXXX   oooooo      ooo                                                                                                                                ",
"     $                           $$$$$$     o            OOOOOOO OO   OO X XXXX   oooo        o                                                                                                                                 ",
"     $                                                                                                                                                                                                                          ",
"                                                                                                                                X      X                                                                                        ",
"  --  -  -  --    ##               %             ++       oooo              &      &             :    :   ++++           X    X  X    X   -                **    **  **    %        %                                           ",
" -  --    --  -  #  #     ##       % %      %    ++      oooooo    oo        &    &       :  :           +    +   ++++    X  X           ---      -        **    **  **    %%      %%                                           ",
"                  ##              %%%%    % %      +++   oo  oo   oooo     &&      &&      ::            + ++ +   +  +     XX             -              **  **           %%%%    %%%%                                          ",
"  --  -  -  --              ##   %%%%%%   %%%%    +++++  oo  oo   oooo    & &      & &     ::            + ++ +   +  +     XX                        -   **  **           %%%%    %%%%                                          ",
" -  --    --  -     ##     #  #  %%%%%%  %%%%%%   +++++  oooooo    oo     &  &    &  &    :  :           +    +   ++++    X  X               -      ---    **    **  **    %%      %%                                           ",
"                            ##    %%%%    %%%%     +++    oooo           &   &    &   &          :    :   ++++           X    X  X    X              -     **    **  **                                                         ",
"                                                                                                                                X      X                                                                                        ",
"                                                                                                                                                                                    o                                           ",
" o ooooo o     o  XXX X   XXX X  ... ... ... . . o o o o OOOOOOO ooo ooo     ooo ooo     ooo ooo ooo ooo  OOOOO   OOOOO   ooooo   ooooo          @@@@@@    oo     OOOO   OOOOOO    ooo                                          ",
"          o      XXXXXXX X X X X ... ... ..   .                  ooo ooo  oo ooo ooo oo  ooo ooo ooo ooo OOOOOOO O     O ooooooo o     o   @@                    O    O  O    O     o                                           ",
" ooooo o o o   o  XXXXXX  X X XX ... ... .     . o     o OOOOOOO ooo ooo  oo ooo ooo oo  ooo ooo ooo ooo OOOOOOO O     O oo o oo o     o          @@@@    oooo   O    O  O    O    ooo                                          ",
"              o  XXXXXXX X XXX X ... ...  .   .                                                          OOOOOOO O     O oo o oo o     o  @@@@           o oo o  OOOOOO  OOOOOO   ooooo                                         ",
" o ooooo o   o o XXXXXX  XX X X  ... ... .     . o     o OOOOOOO ooo ooo ooo ooo ooo ooo ooo oo   oo ooo OOOOO O O     O ooooooo o     o           @@      oo    OOOOOO  OOOOOO   ooooo                                         ",
"          o      XXXXXXX X X X X ... ...  .   ..                 ooo ooo ooo ooo ooo ooo ooo oo   oo ooo OOOOOOO O     O ooooooo o     o @@@@@@          oooooo   OOOO   OOOOOO   ooooo                                         ",
" ooooo o o o   o  X XXX   X XXX  ... ... . . ... o o o o OOOOOOO ooo ooo ooo ooo ooo ooo ooo         ooo OOOOOOO O     O ooooooo o     o                                                                                        ",
"              ;               ;   %  %                                                                                                                                                                                          ",
"   ;;      ;; ;    ;;      ;; ;    %%      >>     O  O    :::     ####           ++  ++  %%%%%%   $  $    OOOO   &&  &&   ----            =  =            $       ****    +  +     >>                                           ",
"              ;               ;            >>    O OO O  :   :   #    #  *    *  +    +    %%      $$    OOOOOO  &&  &&  --  --    $$    = == =   :      $ $$    *    *  +    +   >>>>                                          ",
"  ;;;;    ;;;;;   ;;;;    ;;;;;   %%%%    >  >    OOOO     ::     ###    **  **  ++  ++  %%%%%%   $$$$   O OO O    &&    - -- -   $$$$    ====   :::  :  $$$$$    ***    ++  ++   >>>>                                          ",
" ; ;; ;  ; ;;    ; ;; ;  ; ;;    % %% %  > >> >  O OO O   ::::       #    ****   + ++ +  % %% %  $ $$ $    OO     &&&&   - -- -   $$$$   = == =   :::::   $$$$$  *   *   ++++++  > >> >                                         ",
"  ;  ;    ;  ;    ;;;;    ;;;;    %  %    >  >    O  O    ::::    ###      **     ++++    %  %    $  $    O  O   & && &  --  --  $ $$ $    ==     :::::   $ $$$    **    + ++ +    >>                                           ",
"  ;  ;    ;  ;    ;;;;    ;;;;    %  %   >    >  O    O  : :: :  #               + ++ +   %  %    $  $    O  O    &  &    ----   $$$$$$   =  =     :::   $ $$$    *       +  +      >>                                          ",
"                                                                                                                                                                                                                                ",
"                                                                                                                                                                                                                                ",
"  oooo    ####       ::    :: :  ::::::     :::       :   ::: :       :    :      OOOOO  O OO     &      OOOOOO      %        &   X  X     >         oo  ;;;;;;                           ::::    :  :       OO    $ $$  ;;;;;  ",
"   oo      ##       :::    :::   ::::::     : :      ::     ::       :    :  :   OO   OO  OOO    &&&     OOOOOO      %%      & & X XX X   > >     ooo  o  ;;;;    &&&&     --     ====   ::::::  ::  ::     OOO    $$$$  ;;;;;; ",
"  o  o    #  #   : :::      :::  ::::::     :::     : :     :::     :    :  :    OOOOOOO  OOO     &               %%%       & &   XXXX    >>>    ooooo    ;;;;     &&     -- -   ======  : :: :    :        OO    $$$$   ;    ; ",
" o    o  #    #   :::      : ::  ::::::    :       :  :    :  :    :       :  :   OO OO   OOOO       &   OO  OO  %%%%    &&&      XXXX    >>>    ooooo    ;;;;    &  &   ------  ==  ==  ::::::     :      O      $$$$$  ;;;;;; ",
" o    o  ######   ::      :       ::::    :       :   :   :   :  ::       :  :    OOOOO   OOOOO     &&&  OOOOOO  %%%%    & &     X XX X   >>> >  ooooo    ;;;;    &  &    ----     ==     ::::   ::  ::   O       $$$    ;    ; ",
"  oooo    ####   :  :    :         ::    :       :::::   :       ::         :     OOOOO     OOO      &   OOOOOO   %%     &&&      X  X   >>>>>    ooo    ;;;;;;    &&      --             : ::    :  :   O       $       ;;;;;; ",
"                                                                                                                                                                                                                                ",
"                            >                                                                                                            >>  >>                                                                                 ",
"   >>     &&&&    >  >    >>>>>  >>   >    >>     >>>>     >>      >>      >>                      >>                      >>      >>    >>  >>     >>    >>     >>>>>   >>           >>   >>              >>                   ",
"   >>    &&  &&  >>>>>>  >>      >>  >    >>>>   >>  >>  > >> >   >>        >>            >>>>     >>                      >>      >>     >   >    >>      >>        >>   >>         >>    >>              >>      >  >  >  >   ",
"   >>    && &&&   >  >   >>>>>      >    >>  >>   >>>     >>>>    >>        >>    >>>>           >>>>>>                                           >>        >>    >>>>     >>       >>     >>    >>>>>>           >>  >  >  >>  ",
"   >>    && &&&   >  >    >>>>>    >             >> >>    >>>>    >>        >>                   >>>>>>                                           >>        >>    >>        >>     >>      >>    >>>>>>          >>>>>    >>>>> ",
"         &&      >>>>>>      >>   >  >>          >>  >>  > >> >   >>        >>            >>>>     >>      >>      >>      >>      >>              >>      >>                >>   >>       >>              >>     >>        >>  ",
"   >>     &&&&    >  >   >>>>>   >   >>           >>>> >   >>      >>      >>                      >>      >>      >>      >>      >>               >>    >>      >>          >> >>        >>              >>      >        >   ",
"                           >                                                                                       >               >                                                                                            ",
"                                                                                                                                                                                                                                ",
"  >>>>   >>>>>    >>>>   >>>>>   >>>>>>  >>>>>>   >>>>>  >>  >>   >>>>     >>>>  >>  >>  >>      >>   >> >>  >>   >>>>   >>>>>    >>>>   >>>>>    >>>>>  >>>>>>  >>  >>  >>  >> >> >> >> >>  >>  >>  >>  >>>>>>     >       >   ",
" >>  >>  >>  >>  >>  >>  >>  >>  >>      >>      >>      >>  >>    >>        >>  >> >>   >>      >>> >>> >>> >>  >>  >>  >>  >>  >>  >>  >>  >>  >>        >>    >>  >>  >>  >> >> >> >>  >>>>   >>  >>     >>     >>>      >   ",
" >>>>>>  >>>>>   >>      >>  >>  >>>>>   >>>>>   >> >>>  >>>>>>    >>        >>  >>>>    >>      >>>>>>> >>>>>>  >>  >>  >>  >>  >>  >>  >>  >>  >>>>>     >>    >>  >>  >>  >> >> >> >>   >>     >>>>     >>     >>>>>     >   ",
" >>  >>  >>  >>  >>      >>  >>  >>      >>      >>  >>  >>  >>    >>        >>  >>>>    >>      >> > >> >> >>>  >>  >>  >>>>>   >>  >>  >>>>>    >>>>>    >>    >>  >>   >>>>  >> >> >>   >>      >>      >>       >     >>>>> ",
" >>  >>  >>  >>  >>  >>  >>  >>  >>      >>      >>  >>  >>  >>    >>    >>  >>  >> >>   >>      >> > >> >>  >>  >>  >>  >>      >>  >>  >> >>>      >>    >>    >>  >>   >>>>  >>>>>>>>  >>>>     >>     >>        >      >>>  ",
" >>  >>  >>>>>    >>>>   >>>>>   >>>>>>  >>       >>>>>  >>  >>   >>>>    >>>>   >>  >>  >>>>>>  >>   >> >>  >>   >>>>   >>       >>>>   >>  >>  >>>>>     >>     >>>>     >>    >>  >>  >>  >>    >>    >>>>>>     >       >   ",
"                                                                                                                                    >>                                                                                          ",
"                                                                                  >>>>    >>>>                                                                          > > > >                 >>>>>>>>                        ",
"  >>>    >>>>>   >>>>>     >>>   >>>>>>   >>>>   >>>>>>   >>>>    >>>>    >>>>   >    >  >    >  >>      >>>>>>      >>    >>       >>>  >>>>>>    >>      >>    > > >   > > > >                >      >                        ",
"   >>        >>      >>   >>>>   >>      >>          >>  >>  >>  >>  >>  >>  >> > >  > >> >  > > >>>>    >>>>>>    >>>>    >>       >    >>>>>>   >>>>            > > > > > > >    >>           >      >           >        >   ",
"   >>     >>>>    >>>>   >> >>   >>>>>   >>>>>      >>    >>>>    >>>>>  >>  >> >      >>      > >>>>>>   >>>>   >>>>>>   >>>>      >    >>>>>>  >>>>>>  >    >  > > >   > > > >  >>>>     >>   >      >          >>        >>  ",
"   >>    >>          >>  >> >>       >>  >>  >>    >>    >>  >>      >>  >>  >> > >  > >>  >>  > >>>>>>   >>>>   >>>>>>   >>>>    >>>    >>>>>>  >>>>>>  >    >   > > > > > > >   >>>>     >>   >      >         >>>>>>  >>>>>> ",
"   >>    >>          >>  >>>>>>      >>  >>  >>    >>    >>  >>      >>  >>  >> >  >>  >> >  > > >>>>      >>      >>>>  >>>>>>  >>>>    >>>>>>   >>>>           > > >   > > > >   >>           >      >          >>        >>  ",
"   >>    >>>>>>  >>>>>      >>   >>>>>    >>>>    >>      >>>>    >>>>    >>>>   >    >  >    >  >>        >>        >>  >>>>>>   >>     >>>>>>    >>      >>     > > > > > > >                 >      >           >        >   ",
"                                                                                  >>>>    >>>>                                                                           > > > >                >>>>>>>> >>>>>>                 "
};
